<svg width="532" height="359" viewBox="0 0 532 359" fill="none" xmlns="http://www.w3.org/2000/svg">
<path d="M272.146 350.639L272.184 350.921L272.447 351.032L282.008 355.058L282.202 354.597L282.008 355.058C282.334 355.195 282.602 355.44 282.767 355.753C282.932 356.065 282.985 356.425 282.915 356.772C282.845 357.118 282.657 357.43 282.383 357.654C282.11 357.878 281.767 358 281.414 358H163.988C163.643 358 163.308 357.884 163.038 357.669C162.768 357.455 162.577 357.156 162.498 356.821C162.419 356.485 162.455 356.132 162.601 355.82C162.748 355.507 162.995 355.254 163.303 355.099C163.303 355.099 163.303 355.099 163.303 355.099L171.857 350.823L172.09 350.706L172.128 350.449L179.173 303.143H265.646L272.146 350.639Z" fill="white" stroke="#CDCDCD"/>
<path d="M1.00781 274.207V240.685H444.832V274.207C444.832 282.815 441.418 291.072 435.338 297.166C429.257 303.26 421.008 306.693 412.4 306.713H33.4401C24.8317 306.693 16.5826 303.26 10.5025 297.166C4.42236 291.072 1.00777 282.815 1.00781 274.207Z" fill="white" stroke="#CDCDCD"/>
<path d="M445.34 267.613H0.5V33.0067C0.509851 24.3884 3.9378 16.1259 10.0319 10.0319C16.1259 3.9378 24.3884 0.509851 33.0066 0.5H412.833C421.452 0.50983 429.714 3.93779 435.808 10.0318C441.902 16.126 445.33 24.3886 445.34 33.0069V267.613Z" fill="white" stroke="#CDCDCD"/>
<path d="M410.294 249.325H35.5452C31.1025 249.32 26.8431 247.553 23.7017 244.411C20.5602 241.27 18.7931 237.011 18.7881 232.568V35.5452C18.7931 31.1024 20.5602 26.8431 23.7017 23.7017C26.8431 20.5602 31.1024 18.7931 35.5452 18.7881H410.294C414.737 18.7931 418.996 20.5602 422.138 23.7017C425.279 26.8431 427.047 31.1025 427.052 35.5452V232.568C427.047 237.011 425.279 241.27 422.138 244.411C418.996 247.553 414.737 249.32 410.294 249.325V249.325Z" fill="url(#paint0_linear_31_142)"/>
<path d="M245.577 119.369C245.577 119.401 245.578 119.433 245.58 119.465C246.614 135.74 253.809 151.01 265.7 162.17C277.592 173.329 293.287 179.541 309.595 179.541C325.903 179.541 341.599 173.329 353.49 162.169C365.382 151.01 372.576 135.74 373.61 119.465C373.624 119.263 373.596 119.062 373.528 118.872C373.459 118.682 373.353 118.508 373.214 118.362C373.078 118.215 372.913 118.099 372.73 118.02C372.546 117.94 372.348 117.9 372.149 117.9L247.042 117.9C246.653 117.901 246.28 118.057 246.005 118.332C245.731 118.607 245.577 118.98 245.577 119.369V119.369Z" fill="#34E9D0"/>
<path d="M352.344 67.8628C352.344 68.3622 352.146 68.8411 351.793 69.1948L308.236 112.752C308.061 112.927 307.854 113.066 307.626 113.161C307.398 113.255 307.153 113.304 306.906 113.303H247.042C246.785 113.304 246.53 113.252 246.295 113.15C246.059 113.048 245.847 112.898 245.672 112.71C245.495 112.522 245.358 112.299 245.27 112.055C245.183 111.812 245.146 111.553 245.163 111.295C245.924 99.3113 250.013 87.7777 256.969 77.9899C263.925 68.2022 273.472 60.5482 284.539 55.888C295.605 51.2277 307.752 49.746 319.615 51.6091C331.477 53.4723 342.584 58.6066 351.689 66.4351C351.886 66.6045 352.045 66.8125 352.157 67.0461C352.27 67.2796 352.333 67.5338 352.343 67.7929C352.344 67.8162 352.344 67.8395 352.344 67.8628Z" fill="#CD9BFE"/>
<path d="M287.274 205.208C287.251 207.486 286.552 209.706 285.267 211.588C283.982 213.47 282.167 214.928 280.053 215.778C277.939 216.628 275.621 216.833 273.39 216.365C271.16 215.898 269.119 214.78 267.524 213.152C265.93 211.524 264.853 209.46 264.432 207.221C264.01 204.982 264.262 202.668 265.156 200.571C266.049 198.475 267.544 196.691 269.452 195.445C271.359 194.198 273.594 193.546 275.872 193.569C278.926 193.604 281.842 194.849 283.98 197.031C286.117 199.212 287.302 202.153 287.274 205.208Z" fill="#CD9BFE"/>
<path d="M320.19 205.545C320.166 207.824 319.468 210.044 318.183 211.926C316.897 213.807 315.083 215.266 312.969 216.116C310.855 216.966 308.536 217.171 306.306 216.703C304.076 216.236 302.034 215.118 300.44 213.49C298.845 211.862 297.769 209.798 297.347 207.559C296.926 205.32 297.178 203.006 298.071 200.909C298.965 198.813 300.46 197.029 302.367 195.783C304.275 194.536 306.509 193.883 308.788 193.907C311.842 193.942 314.758 195.187 316.895 197.368C319.033 199.55 320.218 202.491 320.19 205.545V205.545Z" fill="#34E9D0"/>
<path d="M353.105 205.883C353.081 208.162 352.383 210.382 351.098 212.264C349.812 214.145 347.998 215.603 345.884 216.454C343.77 217.304 341.451 217.509 339.221 217.041C336.991 216.574 334.949 215.455 333.355 213.828C331.76 212.2 330.684 210.136 330.262 207.897C329.841 205.657 330.093 203.343 330.986 201.247C331.88 199.151 333.375 197.367 335.282 196.121C337.19 194.874 339.424 194.221 341.703 194.245C344.757 194.28 347.673 195.524 349.81 197.706C351.948 199.888 353.133 202.829 353.105 205.883V205.883Z" fill="white"/>
<path d="M186.319 81.4135L80.6164 80.3291C79.5864 80.3177 78.5642 80.5094 77.6084 80.8932C76.6525 81.2771 75.7816 81.8455 75.0456 82.5661C74.3095 83.2867 73.7226 84.1452 73.3185 85.0927C72.9144 86.0401 72.7009 87.058 72.6904 88.088C72.6798 89.118 72.8723 90.14 73.2569 91.0955C73.6415 92.0511 74.2106 92.9215 74.9318 93.657C75.6529 94.3925 76.5119 94.9787 77.4597 95.3821C78.4075 95.7854 79.4255 95.9981 80.4555 96.0078L186.158 97.0922C187.188 97.1036 188.21 96.9119 189.166 96.5281C190.122 96.1443 190.993 95.5758 191.729 94.8552C192.465 94.1347 193.052 93.2761 193.456 92.3287C193.86 91.3812 194.074 90.3634 194.084 89.3334C194.095 88.3034 193.902 87.2814 193.518 86.3258C193.133 85.3702 192.564 84.4998 191.843 83.7643C191.122 83.0288 190.263 82.4426 189.315 82.0393C188.367 81.6359 187.349 81.4233 186.319 81.4135V81.4135Z" fill="white"/>
<path d="M185.88 124.252L80.1773 123.168C78.383 123.146 76.6357 123.741 75.2274 124.853C73.819 125.965 72.8351 127.526 72.4402 129.277C72.0452 131.027 72.2631 132.86 73.0575 134.469C73.8518 136.078 75.1744 137.366 76.8042 138.116C77.8101 138.588 78.9057 138.836 80.0164 138.846L185.719 139.931C186.749 139.943 187.772 139.751 188.728 139.368C189.685 138.984 190.556 138.416 191.293 137.695C192.029 136.975 192.617 136.116 193.021 135.168C193.425 134.22 193.639 133.202 193.65 132.172C193.66 131.141 193.468 130.119 193.083 129.163C192.698 128.207 192.128 127.337 191.407 126.601C190.685 125.866 189.825 125.28 188.877 124.876C187.929 124.473 186.91 124.261 185.88 124.252V124.252Z" fill="white"/>
<path d="M185.44 167.091L79.7375 166.006C78.7075 165.995 77.6853 166.187 76.7295 166.57C75.7736 166.954 74.9027 167.523 74.1666 168.243C73.4306 168.964 72.8437 169.822 72.4396 170.77C72.0355 171.717 71.822 172.735 71.8114 173.765C71.8009 174.795 71.9934 175.817 72.378 176.773C72.7626 177.728 73.3317 178.599 74.0529 179.334C74.774 180.07 75.633 180.656 76.5808 181.059C77.5286 181.463 78.5466 181.675 79.5766 181.685L185.279 182.769C186.31 182.781 187.332 182.59 188.289 182.207C189.245 181.823 190.116 181.255 190.853 180.534C191.59 179.814 192.177 178.955 192.581 178.007C192.986 177.059 193.199 176.041 193.21 175.011C193.22 173.98 193.028 172.958 192.643 172.002C192.258 171.046 191.688 170.176 190.967 169.44C190.245 168.704 189.386 168.118 188.437 167.715C187.489 167.312 186.47 167.1 185.44 167.091V167.091Z" fill="white"/>
<path d="M156.238 81.1049L80.6164 80.3291C79.5864 80.3177 78.5642 80.5094 77.6084 80.8932C76.6525 81.2771 75.7816 81.8455 75.0456 82.5661C74.3095 83.2867 73.7226 84.1452 73.3185 85.0927C72.9144 86.0401 72.7009 87.058 72.6904 88.088C72.6798 89.118 72.8723 90.14 73.2569 91.0955C73.6415 92.0511 74.2106 92.9215 74.9318 93.657C75.6529 94.3925 76.5119 94.9787 77.4597 95.3821C78.4075 95.7854 79.4255 95.9981 80.4555 96.0078L154.502 96.7675C156.006 96.169 157.32 95.1726 158.301 93.885C159.283 92.5973 159.896 91.0669 160.074 89.4577C160.252 87.8485 159.99 86.221 159.314 84.7496C158.638 83.2782 157.575 82.0184 156.238 81.1049V81.1049Z" fill="#CD9BFE"/>
<path d="M124.487 123.464L80.5587 123.001C78.622 122.976 76.7359 123.636 75.2158 124.869C73.6957 126.102 72.6337 127.833 72.2074 129.774C71.7811 131.714 72.0163 133.747 72.8737 135.531C73.7311 137.314 75.1587 138.742 76.9178 139.574L117.266 140C119.821 140.026 122.281 139.008 124.106 137.172C125.931 135.335 126.972 132.829 126.999 130.205C127.037 127.709 126.138 125.295 124.487 123.464V123.464Z" fill="#CD9BFE"/>
<path d="M177.542 167.01L79.7375 166.006C78.7075 165.995 77.6853 166.187 76.7295 166.57C75.7736 166.954 74.9027 167.523 74.1666 168.243C73.4306 168.964 72.8437 169.822 72.4396 170.77C72.0355 171.717 71.822 172.735 71.8114 173.765C71.8009 174.795 71.9934 175.817 72.378 176.773C72.7626 177.728 73.3317 178.599 74.0529 179.334C74.774 180.07 75.633 180.656 76.5808 181.059C77.5286 181.463 78.5466 181.675 79.5766 181.685L178.012 182.695C179.406 181.891 180.557 180.724 181.342 179.319C182.126 177.913 182.515 176.321 182.467 174.712C182.419 173.103 181.936 171.537 181.068 170.181C180.201 168.824 178.983 167.729 177.542 167.01H177.542Z" fill="#CD9BFE"/>
<path d="M415.949 359H34.9487C34.6835 359 34.4292 358.895 34.2416 358.707C34.0541 358.52 33.9487 358.265 33.9487 358C33.9487 357.735 34.0541 357.48 34.2416 357.293C34.4292 357.105 34.6835 357 34.9487 357H415.949C416.214 357 416.468 357.105 416.656 357.293C416.843 357.48 416.949 357.735 416.949 358C416.949 358.265 416.843 358.52 416.656 358.707C416.468 358.895 416.214 359 415.949 359Z" fill="#CCCCCC"/>
<path d="M423.281 32.5H507.177C513.636 32.5069 519.823 34.9025 524.38 39.1516C528.937 43.3996 531.493 49.1514 531.5 55.1429V257.857C531.493 263.849 528.937 269.6 524.38 273.848C519.823 278.098 513.636 280.493 507.176 280.5H423.282C416.822 280.493 410.635 278.098 406.078 273.848C401.521 269.6 398.965 263.849 398.958 257.857V114.327V113.683L398.334 113.843C398.232 113.869 398.124 113.873 398.02 113.854C397.916 113.835 397.82 113.794 397.74 113.736C397.66 113.679 397.599 113.607 397.559 113.529C397.518 113.451 397.499 113.368 397.5 113.285H397.5V113.278L397.5 99.6867L397.5 99.68C397.499 99.5972 397.518 99.5138 397.559 99.4359C397.599 99.3579 397.66 99.2863 397.74 99.2289C397.82 99.1714 397.916 99.1304 398.02 99.1113C398.124 99.0922 398.232 99.0959 398.334 99.1221L398.958 99.2824V98.6378V93.6679V93.0233L398.334 93.1836C398.232 93.2097 398.124 93.2135 398.02 93.1944C397.916 93.1753 397.82 93.1343 397.74 93.0768C397.66 93.0194 397.599 92.9478 397.559 92.8698C397.518 92.7919 397.499 92.7085 397.5 92.6256H397.5V92.619L397.5 79.0273L397.5 79.0207C397.499 78.9378 397.518 78.8544 397.559 78.7765C397.599 78.6985 397.66 78.6269 397.74 78.5695C397.82 78.512 397.916 78.471 398.02 78.4519C398.124 78.4328 398.232 78.4366 398.334 78.4627L398.958 78.623V77.9784V69.7465V69.102L398.334 69.2622C398.232 69.2883 398.124 69.2921 398.02 69.273C397.916 69.2539 397.82 69.2128 397.74 69.1553C397.661 69.0979 397.599 69.0264 397.559 68.9483C397.518 68.8705 397.499 68.787 397.5 68.7042H397.5V68.6976V63.2609H397.5L397.5 63.2543C397.499 63.1715 397.518 63.088 397.559 63.0102C397.599 62.9321 397.661 62.8605 397.74 62.8032C397.82 62.7457 397.916 62.7046 398.02 62.6855C398.124 62.6664 398.232 62.6702 398.334 62.6963L398.958 62.8565V62.212V55.1426C398.965 49.1512 401.521 43.3996 406.078 39.1516C410.635 34.9025 416.822 32.5069 423.281 32.5ZM527.252 257.858V257.858V55.1423V55.1416C527.246 50.1592 525.12 45.3901 521.353 41.8784C517.587 38.3678 512.489 36.3986 507.178 36.393H507.177L423.281 36.393L423.28 36.393C417.969 36.3986 412.871 38.3678 409.105 41.8784C405.338 45.3901 403.212 50.1592 403.206 55.1416V55.1423L403.206 257.858L403.206 257.858C403.212 262.841 405.338 267.61 409.105 271.122C412.871 274.632 417.969 276.601 423.28 276.607H423.281H507.177H507.178C512.489 276.601 517.587 274.632 521.353 271.122C525.12 267.61 527.246 262.841 527.252 257.858Z" fill="white" stroke="#CDCDCD"/>
<path d="M507.177 278.825H423.281C417.318 278.819 411.602 276.608 407.385 272.677C403.169 268.746 400.797 263.416 400.791 257.857V55.1419C400.797 49.5829 403.169 44.2534 407.385 40.3226C411.602 36.3917 417.318 34.1806 423.281 34.1743H507.177C513.14 34.1806 518.856 36.3917 523.073 40.3226C527.289 44.2534 529.661 49.5829 529.667 55.1419V257.857C529.661 263.416 527.289 268.746 523.073 272.677C518.856 276.608 513.14 278.819 507.177 278.825V278.825Z" fill="white"/>
<path d="M509.25 275.563H421.208C417.186 275.559 413.331 274.068 410.487 271.417C407.643 268.765 406.044 265.171 406.039 261.421V51.5783C406.044 47.829 407.643 44.2344 410.487 41.5832C413.331 38.9321 417.186 37.4408 421.208 37.4365H432.69C433.354 37.4372 433.992 37.6837 434.462 38.1219C434.932 38.5601 435.196 39.1542 435.197 39.7739C435.199 41.6046 435.98 43.3597 437.368 44.6542C438.757 45.9487 440.64 46.6768 442.603 46.6789H486.689C488.652 46.6769 490.535 45.9487 491.923 44.6542C493.312 43.3597 494.093 41.6046 494.095 39.7739C494.096 39.1542 494.36 38.5601 494.83 38.1219C495.3 37.6837 495.938 37.4372 496.602 37.4365H509.25C513.272 37.4408 517.127 38.9321 519.971 41.5832C522.815 44.2344 524.415 47.8289 524.419 51.5783V261.421C524.415 265.171 522.815 268.765 519.971 271.416C517.128 274.068 513.272 275.559 509.25 275.563V275.563Z" fill="url(#paint1_linear_31_142)"/>
<path d="M453.863 228L453.641 227.652C453.969 227.419 454.295 227.182 454.619 226.942L454.848 227.285C454.522 227.527 454.194 227.765 453.863 228Z" fill="#CCCCCC"/>
<path d="M472.042 207.302L471.697 207.095C471.892 206.733 472.084 206.367 472.272 206L472.622 206.199C472.432 206.569 472.239 206.937 472.042 207.302Z" fill="#CCCCCC"/>
<path d="M503.225 207.069H420.775C419.774 207.07 418.814 207.49 418.107 208.236C417.399 208.983 417.001 209.995 417 211.051V223.207C417.001 224.263 417.399 225.276 418.107 226.022C418.814 226.769 419.774 227.189 420.775 227.19H503.225C504.226 227.189 505.186 226.769 505.893 226.022C506.601 225.276 506.999 224.263 507 223.207V211.051C506.999 209.995 506.601 208.983 505.893 208.236C505.186 207.49 504.226 207.07 503.225 207.069ZM506.603 223.207C506.601 224.152 506.245 225.057 505.612 225.725C504.979 226.393 504.121 226.769 503.225 226.77H420.775C419.879 226.769 419.021 226.393 418.388 225.725C417.755 225.057 417.399 224.152 417.397 223.207V211.051C417.399 210.107 417.755 209.201 418.388 208.533C419.021 207.865 419.879 207.489 420.775 207.488H503.225C504.121 207.489 504.979 207.865 505.612 208.533C506.245 209.201 506.601 210.107 506.603 211.051V223.207Z" fill="#34E9D0"/>
<path d="M435.245 210.423C433.987 210.423 432.758 210.817 431.713 211.554C430.667 212.291 429.852 213.338 429.371 214.564C428.89 215.789 428.764 217.138 429.009 218.439C429.255 219.74 429.86 220.935 430.749 221.873C431.638 222.811 432.771 223.45 434.005 223.708C435.238 223.967 436.516 223.834 437.678 223.327C438.839 222.819 439.832 221.959 440.531 220.856C441.23 219.753 441.602 218.457 441.602 217.13C441.601 215.352 440.93 213.647 439.738 212.39C438.546 211.133 436.93 210.425 435.245 210.423Z" fill="#34E9D0"/>
<path d="M493.524 222.789H448.027C447.606 222.789 447.202 222.612 446.904 222.298C446.605 221.983 446.438 221.557 446.438 221.112C446.438 220.668 446.605 220.241 446.904 219.927C447.202 219.612 447.606 219.436 448.027 219.436H493.524C493.946 219.436 494.35 219.612 494.648 219.927C494.946 220.241 495.113 220.668 495.113 221.112C495.113 221.557 494.946 221.983 494.648 222.298C494.35 222.612 493.946 222.789 493.524 222.789Z" fill="#CCCCCC"/>
<path d="M470.676 215.663H448.027C447.606 215.663 447.202 215.486 446.904 215.172C446.605 214.857 446.438 214.431 446.438 213.986C446.438 213.542 446.605 213.115 446.904 212.801C447.202 212.486 447.606 212.31 448.027 212.31H470.676C471.098 212.31 471.502 212.486 471.8 212.801C472.098 213.115 472.266 213.542 472.266 213.986C472.266 214.431 472.098 214.857 471.8 215.172C471.502 215.486 471.098 215.663 470.676 215.663Z" fill="#CCCCCC"/>
<path d="M434.814 220.062C434.649 220.063 434.489 220.007 434.358 219.903L434.35 219.896L432.634 218.511C432.473 218.382 432.368 218.19 432.342 217.978C432.315 217.767 432.369 217.553 432.492 217.383C432.615 217.214 432.797 217.103 432.998 217.075C433.198 217.047 433.401 217.105 433.562 217.234L434.673 218.134L437.3 214.519C437.361 214.435 437.437 214.364 437.523 214.312C437.61 214.259 437.706 214.224 437.805 214.211C437.904 214.197 438.005 214.204 438.102 214.231C438.199 214.258 438.289 214.305 438.369 214.37L438.369 214.37L438.353 214.394L438.369 214.37C438.53 214.5 438.634 214.691 438.661 214.903C438.687 215.114 438.633 215.328 438.51 215.498L435.421 219.748C435.349 219.846 435.257 219.925 435.152 219.979C435.047 220.034 434.931 220.062 434.814 220.062L434.814 220.062Z" fill="white"/>
<path d="M453.863 196L453.641 195.652C453.969 195.419 454.295 195.182 454.619 194.942L454.848 195.285C454.522 195.527 454.194 195.765 453.863 196Z" fill="#CCCCCC"/>
<path d="M472.042 175.302L471.697 175.095C471.892 174.733 472.084 174.367 472.272 174L472.622 174.199C472.432 174.569 472.239 174.937 472.042 175.302Z" fill="#CCCCCC"/>
<path d="M503.225 175.069H420.775C419.774 175.07 418.814 175.49 418.107 176.236C417.399 176.983 417.001 177.995 417 179.051V191.207C417.001 192.263 417.399 193.276 418.107 194.022C418.814 194.769 419.774 195.189 420.775 195.19H503.225C504.226 195.189 505.186 194.769 505.893 194.022C506.601 193.276 506.999 192.263 507 191.207V179.051C506.999 177.995 506.601 176.983 505.893 176.236C505.186 175.49 504.226 175.07 503.225 175.069ZM506.603 191.207C506.601 192.152 506.245 193.057 505.612 193.725C504.979 194.393 504.121 194.769 503.225 194.77H420.775C419.879 194.769 419.021 194.393 418.388 193.725C417.755 193.057 417.399 192.152 417.397 191.207V179.051C417.399 178.107 417.755 177.201 418.388 176.533C419.021 175.865 419.879 175.489 420.775 175.488H503.225C504.121 175.489 504.979 175.865 505.612 176.533C506.245 177.201 506.601 178.107 506.603 179.051V191.207Z" fill="#34E9D0"/>
<path d="M435.245 178.423C433.987 178.423 432.758 178.817 431.713 179.554C430.667 180.291 429.852 181.338 429.371 182.564C428.89 183.789 428.764 185.138 429.009 186.439C429.255 187.74 429.86 188.935 430.749 189.873C431.638 190.811 432.771 191.45 434.005 191.708C435.238 191.967 436.516 191.834 437.678 191.327C438.839 190.819 439.832 189.959 440.531 188.856C441.23 187.753 441.602 186.457 441.602 185.13C441.601 183.352 440.93 181.647 439.738 180.39C438.546 179.133 436.93 178.425 435.245 178.423Z" fill="#34E9D0"/>
<path d="M493.524 190.789H448.027C447.606 190.789 447.202 190.612 446.904 190.298C446.605 189.983 446.438 189.557 446.438 189.112C446.438 188.668 446.605 188.241 446.904 187.927C447.202 187.612 447.606 187.436 448.027 187.436H493.524C493.946 187.436 494.35 187.612 494.648 187.927C494.946 188.241 495.113 188.668 495.113 189.112C495.113 189.557 494.946 189.983 494.648 190.298C494.35 190.612 493.946 190.789 493.524 190.789Z" fill="#CCCCCC"/>
<path d="M470.676 183.663H448.027C447.606 183.663 447.202 183.486 446.904 183.172C446.605 182.857 446.438 182.431 446.438 181.986C446.438 181.542 446.605 181.115 446.904 180.801C447.202 180.486 447.606 180.31 448.027 180.31H470.676C471.098 180.31 471.502 180.486 471.8 180.801C472.098 181.115 472.266 181.542 472.266 181.986C472.266 182.431 472.098 182.857 471.8 183.172C471.502 183.486 471.098 183.663 470.676 183.663Z" fill="#CCCCCC"/>
<path d="M434.814 188.063C434.649 188.063 434.489 188.007 434.358 187.903L434.35 187.897L432.634 186.512C432.473 186.382 432.368 186.19 432.342 185.979C432.315 185.767 432.369 185.553 432.492 185.384C432.615 185.215 432.797 185.104 432.998 185.076C433.198 185.048 433.401 185.105 433.562 185.235L434.673 186.134L437.3 182.519C437.361 182.435 437.437 182.365 437.523 182.312C437.61 182.259 437.706 182.225 437.805 182.211C437.904 182.197 438.005 182.204 438.102 182.231C438.199 182.259 438.289 182.306 438.369 182.37L438.369 182.37L438.353 182.394L438.369 182.37C438.53 182.5 438.634 182.692 438.661 182.903C438.687 183.115 438.633 183.329 438.51 183.498L435.421 187.748C435.349 187.846 435.257 187.925 435.152 187.98C435.047 188.034 434.931 188.062 434.814 188.062L434.814 188.063Z" fill="white"/>
<path d="M453.863 163L453.641 162.652C453.969 162.419 454.295 162.182 454.619 161.942L454.848 162.285C454.522 162.527 454.194 162.765 453.863 163Z" fill="#CCCCCC"/>
<path d="M472.042 142.302L471.697 142.095C471.892 141.733 472.084 141.367 472.272 141L472.622 141.199C472.432 141.569 472.239 141.937 472.042 142.302Z" fill="#CCCCCC"/>
<path d="M503.225 142.069H420.775C419.774 142.07 418.814 142.49 418.107 143.236C417.399 143.983 417.001 144.995 417 146.051V158.207C417.001 159.263 417.399 160.276 418.107 161.022C418.814 161.769 419.774 162.189 420.775 162.19H503.225C504.226 162.189 505.186 161.769 505.893 161.022C506.601 160.276 506.999 159.263 507 158.207V146.051C506.999 144.995 506.601 143.983 505.893 143.236C505.186 142.49 504.226 142.07 503.225 142.069ZM506.603 158.207C506.601 159.152 506.245 160.057 505.612 160.725C504.979 161.393 504.121 161.769 503.225 161.77H420.775C419.879 161.769 419.021 161.393 418.388 160.725C417.755 160.057 417.399 159.152 417.397 158.207V146.051C417.399 145.107 417.755 144.201 418.388 143.533C419.021 142.865 419.879 142.489 420.775 142.488H503.225C504.121 142.489 504.979 142.865 505.612 143.533C506.245 144.201 506.601 145.107 506.603 146.051V158.207Z" fill="#34E9D0"/>
<path d="M435.245 145.423C433.987 145.423 432.758 145.817 431.713 146.554C430.667 147.291 429.852 148.338 429.371 149.564C428.89 150.789 428.764 152.138 429.009 153.439C429.255 154.74 429.86 155.935 430.749 156.873C431.638 157.811 432.771 158.45 434.005 158.708C435.238 158.967 436.516 158.834 437.678 158.327C438.839 157.819 439.832 156.959 440.531 155.856C441.23 154.753 441.602 153.457 441.602 152.13C441.601 150.352 440.93 148.647 439.738 147.39C438.546 146.133 436.93 145.425 435.245 145.423Z" fill="#34E9D0"/>
<path d="M493.524 157.789H448.027C447.606 157.789 447.202 157.612 446.904 157.298C446.605 156.983 446.438 156.557 446.438 156.112C446.438 155.668 446.605 155.241 446.904 154.927C447.202 154.612 447.606 154.436 448.027 154.436H493.524C493.946 154.436 494.35 154.612 494.648 154.927C494.946 155.241 495.113 155.668 495.113 156.112C495.113 156.557 494.946 156.983 494.648 157.298C494.35 157.612 493.946 157.789 493.524 157.789Z" fill="#CCCCCC"/>
<path d="M470.676 150.663H448.027C447.606 150.663 447.202 150.486 446.904 150.172C446.605 149.857 446.438 149.431 446.438 148.986C446.438 148.542 446.605 148.115 446.904 147.801C447.202 147.486 447.606 147.31 448.027 147.31H470.676C471.098 147.31 471.502 147.486 471.8 147.801C472.098 148.115 472.266 148.542 472.266 148.986C472.266 149.431 472.098 149.857 471.8 150.172C471.502 150.486 471.098 150.663 470.676 150.663Z" fill="#CCCCCC"/>
<path d="M434.814 155.062C434.649 155.063 434.489 155.007 434.358 154.903L434.35 154.896L432.634 153.511C432.473 153.382 432.368 153.19 432.342 152.978C432.315 152.767 432.369 152.553 432.492 152.383C432.615 152.214 432.797 152.103 432.998 152.075C433.198 152.047 433.401 152.105 433.562 152.234L434.673 153.134L437.3 149.519C437.361 149.435 437.437 149.364 437.523 149.312C437.61 149.259 437.706 149.224 437.805 149.211C437.904 149.197 438.005 149.204 438.102 149.231C438.199 149.258 438.289 149.305 438.369 149.37L438.369 149.37L438.353 149.394L438.369 149.37C438.53 149.5 438.634 149.691 438.661 149.903C438.687 150.114 438.633 150.328 438.51 150.498L435.421 154.748C435.349 154.846 435.257 154.925 435.152 154.979C435.047 155.034 434.931 155.062 434.814 155.062L434.814 155.062Z" fill="white"/>
<path d="M454.064 113C453.917 112.575 453.775 112.149 453.638 111.721L454.147 111.607C454.283 112.032 454.424 112.455 454.57 112.877L454.064 113Z" fill="#CCCCCC"/>
<path d="M458.965 67.3822L458.489 67.1925C458.717 66.7927 458.949 66.3952 459.187 66L459.657 66.1979C459.422 66.5905 459.191 66.9852 458.965 67.3822Z" fill="#CCCCCC"/>
<path d="M502.521 67.2876H418.479C417.291 67.289 416.153 67.6844 415.314 68.3871C414.474 69.0898 414.002 70.0425 414 71.0363V108.082C414.002 109.076 414.474 110.028 415.314 110.731C416.153 111.434 417.291 111.829 418.479 111.831H502.521C503.709 111.829 504.847 111.434 505.686 110.731C506.526 110.028 506.998 109.076 507 108.082V71.0363C506.998 70.0425 506.526 69.0898 505.686 68.3871C504.847 67.6844 503.709 67.289 502.521 67.2876ZM506.473 108.082C506.472 108.959 506.055 109.8 505.314 110.42C504.573 111.04 503.569 111.389 502.521 111.39H418.479C417.431 111.389 416.427 111.04 415.686 110.42C414.945 109.8 414.528 108.959 414.527 108.082V71.0363C414.528 70.1593 414.945 69.3187 415.686 68.6986C416.427 68.0785 417.431 67.7297 418.479 67.7286H502.521C503.569 67.7297 504.573 68.0785 505.314 68.6986C506.055 69.3187 506.472 70.1593 506.473 71.0363V108.082Z" fill="#34E9D0"/>
<path d="M496.183 94.6307H466.676C466.117 94.6307 465.581 94.4448 465.186 94.114C464.79 93.7832 464.568 93.3345 464.568 92.8666C464.568 92.3988 464.79 91.9501 465.186 91.6192C465.581 91.2884 466.117 91.1025 466.676 91.1025H496.183C496.742 91.1025 497.278 91.2884 497.673 91.6192C498.069 91.9501 498.291 92.3988 498.291 92.8666C498.291 93.3345 498.069 93.7832 497.673 94.114C497.278 94.4448 496.742 94.6307 496.183 94.6307Z" fill="#CCCCCC"/>
<path d="M477.741 87.1331H466.676C466.117 87.1331 465.581 86.9473 465.186 86.6165C464.79 86.2856 464.568 85.8369 464.568 85.3691C464.568 84.9012 464.79 84.4525 465.186 84.1217C465.581 83.7908 466.117 83.605 466.676 83.605H477.741C478.3 83.605 478.836 83.7908 479.231 84.1217C479.627 84.4525 479.849 84.9012 479.849 85.3691C479.849 85.8369 479.627 86.2856 479.231 86.6165C478.836 86.9473 478.3 87.1331 477.741 87.1331Z" fill="#CCCCCC"/>
<path d="M453.387 103.451H426.514C425.921 103.45 425.351 103.253 424.932 102.901C424.512 102.55 424.276 102.074 424.275 101.577V76.659C424.276 76.1621 424.512 75.6857 424.932 75.3343C425.351 74.9829 425.921 74.7852 426.514 74.7847H453.387C453.981 74.7852 454.55 74.9829 454.97 75.3343C455.389 75.6857 455.626 76.1621 455.626 76.659V101.577C455.626 102.074 455.389 102.55 454.97 102.901C454.55 103.253 453.981 103.45 453.387 103.451V103.451Z" fill="#34E9D0"/>
<path d="M440.357 98.2608C439.764 98.2469 439.027 98.2296 438.459 97.8824C438.29 97.7747 438.151 97.6374 438.052 97.4801C437.953 97.3227 437.896 97.1492 437.886 96.9715C437.875 96.8453 437.9 96.7188 437.958 96.6019C438.016 96.4849 438.105 96.3808 438.219 96.2976C438.388 96.1919 438.586 96.1233 438.795 96.0981C439.004 96.0729 439.218 96.0919 439.416 96.1534L438.932 93.1945L439.287 93.1538L439.856 96.6323L439.559 96.5184C439.216 96.3865 438.744 96.3194 438.45 96.5267C438.378 96.5809 438.322 96.6483 438.286 96.7236C438.251 96.7989 438.236 96.8801 438.244 96.9609C438.252 97.0931 438.295 97.2222 438.369 97.3394C438.442 97.4566 438.545 97.5592 438.67 97.6401C439.112 97.9104 439.7 97.9453 440.367 97.9609L440.357 98.2608Z" fill="#3F3D56"/>
<path d="M443.27 93.4497H441.339V93.7497H443.27V93.4497Z" fill="#3F3D56"/>
<path d="M431.892 89.3079C430.337 89.1595 429.133 87.9129 429.001 86.648C428.844 85.1432 429.891 83.714 431.327 82.8696C432.829 81.9865 434.701 81.6177 436.512 81.5365C440.044 81.3894 443.516 82.3471 446.252 84.2235C447.608 85.1668 448.876 86.3683 449.356 87.8196C449.773 89.0801 449.434 90.5079 448.222 91.3907C447.923 91.607 447.573 91.769 447.195 91.8665C446.817 91.9639 446.418 91.9947 446.025 91.9569C445.086 91.8752 444.219 91.4616 443.468 91.0049C442.008 90.1164 440.809 88.8786 439.031 88.4143C437.726 88.0739 436.034 88.3735 435.237 89.3607C435.056 89.5867 434.939 89.8441 434.894 90.1135C434.878 90.171 434.888 90.2315 434.923 90.2829C434.957 90.3343 435.014 90.3727 435.082 90.3903C435.151 90.4058 435.224 90.398 435.286 90.3685C435.348 90.3391 435.393 90.2905 435.412 90.2331C435.622 88.9897 437.448 88.5258 438.73 88.8097C440.599 89.2237 441.854 90.6196 443.387 91.5065C444.181 92.0018 445.116 92.3142 446.099 92.4124C446.951 92.4684 447.797 92.2509 448.465 91.804C449.775 90.9383 450.276 89.4492 449.986 88.1085C449.651 86.5559 448.402 85.2253 447.033 84.1951C444.256 82.1287 440.65 81.014 436.935 81.073C435.04 81.1095 433.063 81.4369 431.431 82.2751C429.847 83.0883 428.623 84.4486 428.463 86.0299C428.322 87.4217 429.215 88.8775 430.746 89.4872C431.107 89.6304 431.494 89.7219 431.892 89.7579C432.235 89.7906 432.232 89.3404 431.892 89.3079V89.3079Z" fill="#3F3D56"/>
<defs>
<linearGradient id="paint0_linear_31_142" x1="222.92" y1="18.7881" x2="222.92" y2="249.325" gradientUnits="userSpaceOnUse">
<stop stop-color="#8E8BF2"/>
<stop offset="1" stop-color="#706FE8" stop-opacity="0.94"/>
</linearGradient>
<linearGradient id="paint1_linear_31_142" x1="465.229" y1="37.4365" x2="465.229" y2="275.563" gradientUnits="userSpaceOnUse">
<stop stop-color="#8E8BF2"/>
<stop offset="1" stop-color="#706FE8"/>
</linearGradient>
</defs>
</svg>
